<svg xmlns="http://www.w3.org/2000/svg" viewBox="0 0 256 256"><defs><style>.a{fill:none;}.b{fill:#e03131;}.c{fill:#fff;fill-rule:evenodd;}</style></defs><title>Asset 1</title><rect class="a" width="256" height="256"/><path class="b" d="M165.69,37H90.31L37,90.31v75.39L90.31,219h75.39L219,165.69V90.31Z"/><path class="c" d="M117.5,80h21c3.71,0,7.2,2.47,7.48,5.63v.83c0,.07,0,.14,0,.21l-6.42,47.47a7.48,7.48,0,0,1-7.46,6.67h-7.85a7.5,7.5,0,0,1-7.46-6.67L110,86.67l0-.17v-1c.33-3.12,3.81-5.54,7.48-5.54Zm4.57,73.06h12a5.47,5.47,0,0,1,5.45,5.45v12a5.47,5.47,0,0,1-5.45,5.45h-12a5.47,5.47,0,0,1-5.45-5.45v-12A5.47,5.47,0,0,1,122.07,153.06Z"/></svg>
